<svg width="40" height="40" viewBox="0 0 40 40" fill="none" xmlns="http://www.w3.org/2000/svg">
<path d="M35 11.25H13.75C13.4185 11.25 13.1005 11.1183 12.8661 10.8839C12.6317 10.6495 12.5 10.3315 12.5 10C12.5 9.66848 12.6317 9.35054 12.8661 9.11612C13.1005 8.8817 13.4185 8.75 13.75 8.75H35C35.3315 8.75 35.6495 8.8817 35.8839 9.11612C36.1183 9.35054 36.25 9.66848 36.25 10C36.25 10.3315 36.1183 10.6495 35.8839 10.8839C35.6495 11.1183 35.3315 11.25 35 11.25Z" fill="#6B4FC5"/>
<path d="M8.75 11.25H5C4.66848 11.25 4.35054 11.1183 4.11612 10.8839C3.8817 10.6495 3.75 10.3315 3.75 10C3.75 9.66848 3.8817 9.35054 4.11612 9.11612C4.35054 8.8817 4.66848 8.75 5 8.75H8.75C9.08152 8.75 9.39946 8.8817 9.63388 9.11612C9.8683 9.35054 10 9.66848 10 10C10 10.3315 9.8683 10.6495 9.63388 10.8839C9.39946 11.1183 9.08152 11.25 8.75 11.25Z" fill="#6B4FC5"/>
<path d="M26.25 21.25H5C4.66848 21.25 4.35054 21.1183 4.11612 20.8839C3.8817 20.6495 3.75 20.3315 3.75 20C3.75 19.6685 3.8817 19.3505 4.11612 19.1161C4.35054 18.8817 4.66848 18.75 5 18.75H26.25C26.5815 18.75 26.8995 18.8817 27.1339 19.1161C27.3683 19.3505 27.5 19.6685 27.5 20C27.5 20.3315 27.3683 20.6495 27.1339 20.8839C26.8995 21.1183 26.5815 21.25 26.25 21.25Z" fill="#6B4FC5"/>
<path d="M13.75 31.25H5C4.66848 31.25 4.35054 31.1183 4.11612 30.8839C3.8817 30.6495 3.75 30.3315 3.75 30C3.75 29.6685 3.8817 29.3505 4.11612 29.1161C4.35054 28.8817 4.66848 28.75 5 28.75H13.75C14.0815 28.75 14.3995 28.8817 14.6339 29.1161C14.8683 29.3505 15 29.6685 15 30C15 30.3315 14.8683 30.6495 14.6339 30.8839C14.3995 31.1183 14.0815 31.25 13.75 31.25Z" fill="#6B4FC5"/>
<path d="M11.25 13.75C10.5083 13.75 9.7833 13.5301 9.16661 13.118C8.54993 12.706 8.06928 12.1203 7.78545 11.4351C7.50162 10.7498 7.42736 9.99584 7.57206 9.26841C7.71675 8.54098 8.0739 7.8728 8.59835 7.34835C9.1228 6.8239 9.79098 6.46675 10.5184 6.32206C11.2458 6.17736 11.9998 6.25162 12.6851 6.53545C13.3703 6.81928 13.956 7.29993 14.368 7.91661C14.7801 8.5333 15 9.25832 15 10C15 10.9946 14.6049 11.9484 13.9017 12.6517C13.1984 13.3549 12.2446 13.75 11.25 13.75ZM11.25 8.75C11.0028 8.75 10.7611 8.82331 10.5555 8.96066C10.35 9.09802 10.1898 9.29324 10.0952 9.52165C10.0005 9.75006 9.97579 10.0014 10.024 10.2439C10.0723 10.4863 10.1913 10.7091 10.3661 10.8839C10.5409 11.0587 10.7637 11.1778 11.0061 11.226C11.2486 11.2742 11.4999 11.2495 11.7284 11.1549C11.9568 11.0602 12.152 10.9 12.2893 10.6945C12.4267 10.4889 12.5 10.2472 12.5 10C12.5 9.66848 12.3683 9.35054 12.1339 9.11612C11.8995 8.8817 11.5815 8.75 11.25 8.75Z" fill="#6B4FC5"/>
<path d="M28.75 23.75C28.0083 23.75 27.2833 23.5301 26.6666 23.118C26.0499 22.706 25.5693 22.1203 25.2855 21.4351C25.0016 20.7498 24.9274 19.9958 25.0721 19.2684C25.2167 18.541 25.5739 17.8728 26.0983 17.3484C26.6228 16.8239 27.291 16.4668 28.0184 16.3221C28.7458 16.1774 29.4998 16.2516 30.1851 16.5355C30.8703 16.8193 31.456 17.2999 31.868 17.9166C32.2801 18.5333 32.5 19.2583 32.5 20C32.5 20.9946 32.1049 21.9484 31.4017 22.6517C30.6984 23.3549 29.7446 23.75 28.75 23.75ZM28.75 18.75C28.5028 18.75 28.2611 18.8233 28.0555 18.9607C27.85 19.098 27.6898 19.2932 27.5952 19.5216C27.5005 19.7501 27.4758 20.0014 27.524 20.2439C27.5722 20.4863 27.6913 20.7091 27.8661 20.8839C28.0409 21.0587 28.2637 21.1778 28.5061 21.226C28.7486 21.2742 28.9999 21.2495 29.2284 21.1549C29.4568 21.0602 29.652 20.9 29.7893 20.6945C29.9267 20.4889 30 20.2472 30 20C30 19.6685 29.8683 19.3505 29.6339 19.1161C29.3995 18.8817 29.0815 18.75 28.75 18.75Z" fill="#6B4FC5"/>
<path d="M16.25 33.75C15.5083 33.75 14.7833 33.5301 14.1666 33.118C13.5499 32.706 13.0693 32.1203 12.7855 31.4351C12.5016 30.7498 12.4274 29.9958 12.5721 29.2684C12.7168 28.541 13.0739 27.8728 13.5984 27.3484C14.1228 26.8239 14.791 26.4668 15.5184 26.3221C16.2458 26.1774 16.9998 26.2516 17.6851 26.5355C18.3703 26.8193 18.956 27.2999 19.368 27.9166C19.7801 28.5333 20 29.2583 20 30C20 30.9946 19.6049 31.9484 18.9017 32.6517C18.1984 33.3549 17.2446 33.75 16.25 33.75ZM16.25 28.75C16.0028 28.75 15.7611 28.8233 15.5555 28.9607C15.35 29.098 15.1898 29.2932 15.0952 29.5216C15.0005 29.7501 14.9758 30.0014 15.024 30.2439C15.0723 30.4863 15.1913 30.7091 15.3661 30.8839C15.5409 31.0587 15.7637 31.1778 16.0061 31.226C16.2486 31.2742 16.4999 31.2495 16.7284 31.1549C16.9568 31.0602 17.152 30.9 17.2893 30.6945C17.4267 30.4889 17.5 30.2472 17.5 30C17.5 29.6685 17.3683 29.3505 17.1339 29.1161C16.8995 28.8817 16.5815 28.75 16.25 28.75Z" fill="#6B4FC5"/>
<path d="M35 21.25H31.25C30.9185 21.25 30.6005 21.1183 30.3661 20.8839C30.1317 20.6495 30 20.3315 30 20C30 19.6685 30.1317 19.3505 30.3661 19.1161C30.6005 18.8817 30.9185 18.75 31.25 18.75H35C35.3315 18.75 35.6495 18.8817 35.8839 19.1161C36.1183 19.3505 36.25 19.6685 36.25 20C36.25 20.3315 36.1183 20.6495 35.8839 20.8839C35.6495 21.1183 35.3315 21.25 35 21.25Z" fill="#6B4FC5"/>
<path d="M35 31.25H18.75C18.4185 31.25 18.1005 31.1183 17.8661 30.8839C17.6317 30.6495 17.5 30.3315 17.5 30C17.5 29.6685 17.6317 29.3505 17.8661 29.1161C18.1005 28.8817 18.4185 28.75 18.75 28.75H35C35.3315 28.75 35.6495 28.8817 35.8839 29.1161C36.1183 29.3505 36.25 29.6685 36.25 30C36.25 30.3315 36.1183 30.6495 35.8839 30.8839C35.6495 31.1183 35.3315 31.25 35 31.25Z" fill="#6B4FC5"/>
</svg>
