<svg width="19" height="19" viewBox="0 0 19 19" fill="none" xmlns="http://www.w3.org/2000/svg">
<g clip-path="url(#clip0_188_825)">
<path d="M7.125 0.330113C7.24092 0.470966 7.31193 0.643342 7.32886 0.824971C7.3458 1.0066 7.30788 1.18913 7.22 1.34899C6.53346 2.60949 6.17492 4.0224 6.17738 5.45774C6.17738 10.2327 10.07 14.0992 14.8675 14.0992C15.4933 14.0992 16.1025 14.0339 16.6879 13.9092C16.8674 13.8703 17.0543 13.8852 17.2254 13.9519C17.3965 14.0187 17.5441 14.1343 17.6498 14.2844C17.7614 14.4405 17.8183 14.6291 17.8117 14.8209C17.805 15.0127 17.7352 15.1969 17.613 15.3449C16.6816 16.4889 15.5067 17.4108 14.1738 18.0431C12.8409 18.6754 11.3838 19.0023 9.9085 19C4.43412 19 0 14.5896 0 9.15561C0 5.06586 2.51038 1.55799 6.08475 0.0712383C6.2628 -0.00401142 6.46046 -0.0194561 6.64804 0.0272244C6.83562 0.0739048 7.00299 0.18019 7.125 0.330113V0.330113Z" fill="black"/>
<path d="M12.8178 3.73824C12.8349 3.68682 12.8677 3.64207 12.9116 3.61035C12.9555 3.57863 13.0083 3.56156 13.0625 3.56156C13.1166 3.56156 13.1694 3.57863 13.2133 3.61035C13.2573 3.64207 13.2901 3.68682 13.3071 3.73824L13.7666 5.11812C13.9721 5.73324 14.4542 6.21537 15.0693 6.4208L16.4492 6.88037C16.5006 6.8974 16.5454 6.9302 16.5771 6.97411C16.6088 7.01803 16.6259 7.07082 16.6259 7.12499C16.6259 7.17916 16.6088 7.23196 16.5771 7.27587C16.5454 7.31979 16.5006 7.35259 16.4492 7.36962L15.0693 7.82918C14.766 7.93026 14.4903 8.1006 14.2642 8.32671C14.0381 8.55282 13.8677 8.82849 13.7666 9.13187L13.3071 10.5117C13.2901 10.5632 13.2573 10.6079 13.2133 10.6396C13.1694 10.6714 13.1166 10.6884 13.0625 10.6884C13.0083 10.6884 12.9555 10.6714 12.9116 10.6396C12.8677 10.6079 12.8349 10.5632 12.8178 10.5117L12.3583 9.13187C12.2572 8.82849 12.0869 8.55282 11.8607 8.32671C11.6346 8.1006 11.359 7.93026 11.0556 7.82918L9.67571 7.36962C9.62428 7.35259 9.57953 7.31979 9.54781 7.27587C9.5161 7.23196 9.49902 7.17916 9.49902 7.12499C9.49902 7.07082 9.5161 7.01803 9.54781 6.97411C9.57953 6.9302 9.62428 6.8974 9.67571 6.88037L11.0556 6.4208C11.359 6.31973 11.6346 6.14938 11.8607 5.92327C12.0869 5.69716 12.2572 5.42149 12.3583 5.11812L12.8178 3.73824V3.73824ZM16.4623 0.117554C16.474 0.0837419 16.496 0.0544221 16.5251 0.0336713C16.5543 0.0129205 16.5892 0.00177002 16.625 0.00177002C16.6607 0.00177002 16.6956 0.0129205 16.7248 0.0336713C16.754 0.0544221 16.7759 0.0837419 16.7876 0.117554L17.094 1.03668C17.2306 1.44755 17.5524 1.76937 17.9633 1.90593L18.8824 2.2123C18.9162 2.22403 18.9455 2.24599 18.9663 2.27515C18.987 2.30431 18.9982 2.3392 18.9982 2.37499C18.9982 2.41078 18.987 2.44568 18.9663 2.47483C18.9455 2.50399 18.9162 2.52596 18.8824 2.53768L17.9633 2.84405C17.7608 2.91141 17.5768 3.02505 17.4259 3.17594C17.275 3.32683 17.1614 3.51082 17.094 3.7133L16.7876 4.63243C16.7759 4.66624 16.754 4.69556 16.7248 4.71631C16.6956 4.73706 16.6607 4.74821 16.625 4.74821C16.5892 4.74821 16.5543 4.73706 16.5251 4.71631C16.496 4.69556 16.474 4.66624 16.4623 4.63243L16.1559 3.7133C16.0885 3.51082 15.9749 3.32683 15.824 3.17594C15.6731 3.02505 15.4891 2.91141 15.2866 2.84405L14.3675 2.53768C14.3337 2.52596 14.3044 2.50399 14.2836 2.47483C14.2629 2.44568 14.2517 2.41078 14.2517 2.37499C14.2517 2.3392 14.2629 2.30431 14.2836 2.27515C14.3044 2.24599 14.3337 2.22403 14.3675 2.2123L15.2866 1.90593C15.6975 1.76937 16.0193 1.44755 16.1559 1.03668L16.4623 0.118742V0.117554Z" fill="black"/>
</g>
<defs>
<clipPath id="clip0_188_825">
<rect width="19" height="19" fill="white"/>
</clipPath>
</defs>
</svg>
