<svg width="14" height="14" viewBox="0 0 14 14" fill="none" xmlns="http://www.w3.org/2000/svg">
<g clip-path="url(#clip0_63_89)">
<path d="M6.19231 3.70461C6.19231 4.15068 6.55393 4.5123 7 4.5123C7.44608 4.5123 7.80769 4.15068 7.80769 3.70461C7.80769 3.25853 7.44608 2.89691 7 2.89691C6.55393 2.89691 6.19231 3.25853 6.19231 3.70461Z" fill="#74A3FF"/>
<path d="M7.26923 11.1031C7.12642 11.1031 6.98946 11.0464 6.88848 10.9454C6.7875 10.8444 6.73077 10.7074 6.73077 10.5646V7.06462H6.19231C6.0495 7.06462 5.91254 7.00789 5.81156 6.90691C5.71058 6.80593 5.65385 6.66897 5.65385 6.52616C5.65385 6.38335 5.71058 6.24639 5.81156 6.14541C5.91254 6.04443 6.0495 5.9877 6.19231 5.9877H7.26923C7.41204 5.9877 7.549 6.04443 7.64998 6.14541C7.75096 6.24639 7.80769 6.38335 7.80769 6.52616V10.5646C7.80769 10.7074 7.75096 10.8444 7.64998 10.9454C7.549 11.0464 7.41204 11.1031 7.26923 11.1031Z" fill="#74A3FF"/>
<path d="M6.99999 14C5.61552 14 4.26214 13.5895 3.111 12.8203C1.95986 12.0511 1.06265 10.9579 0.532835 9.67879C0.00302155 8.3997 -0.135602 6.99224 0.134495 5.63437C0.404591 4.2765 1.07128 3.02922 2.05024 2.05026C3.02921 1.07129 4.27649 0.404603 5.63436 0.134506C6.99223 -0.13559 8.39969 0.00303299 9.67877 0.532846C10.9579 1.06266 12.0511 1.95987 12.8203 3.11101C13.5894 4.26216 14 5.61553 14 7C14 8.85652 13.2625 10.637 11.9497 11.9498C10.637 13.2625 8.85651 14 6.99999 14V14ZM6.99999 1.07693C5.82852 1.07693 4.68335 1.42431 3.70931 2.07514C2.73526 2.72598 1.97609 3.65104 1.52778 4.73334C1.07948 5.81564 0.962182 7.00657 1.19073 8.15554C1.41927 9.3045 1.98339 10.3599 2.81174 11.1883C3.6401 12.0166 4.69549 12.5807 5.84446 12.8093C6.99342 13.0378 8.18435 12.9205 9.26665 12.4722C10.349 12.0239 11.274 11.2647 11.9248 10.2907C12.5757 9.31664 12.9231 8.17148 12.9231 7C12.9231 5.42911 12.299 3.92255 11.1882 2.81176C10.0774 1.70096 8.57089 1.07693 6.99999 1.07693V1.07693Z" fill="#74A3FF"/>
</g>
<defs>
<clipPath id="clip0_63_89">
<rect width="14" height="14" fill="white"/>
</clipPath>
</defs>
</svg>
