<svg width="19" height="19" viewBox="0 0 19 19" fill="none" xmlns="http://www.w3.org/2000/svg">
<path d="M9.5 13.5714C8.42019 13.5714 7.38461 13.1425 6.62107 12.3789C5.85752 11.6154 5.42857 10.5798 5.42857 9.5C5.42857 8.42019 5.85752 7.38461 6.62107 6.62107C7.38461 5.85752 8.42019 5.42857 9.5 5.42857C10.5798 5.42857 11.6154 5.85752 12.3789 6.62107C13.1425 7.38461 13.5714 8.42019 13.5714 9.5C13.5714 10.5798 13.1425 11.6154 12.3789 12.3789C11.6154 13.1425 10.5798 13.5714 9.5 13.5714ZM9.5 14.9286C10.9397 14.9286 12.3205 14.3566 13.3386 13.3386C14.3566 12.3205 14.9286 10.9397 14.9286 9.5C14.9286 8.06025 14.3566 6.67947 13.3386 5.66142C12.3205 4.64337 10.9397 4.07143 9.5 4.07143C8.06025 4.07143 6.67948 4.64337 5.66142 5.66142C4.64337 6.67947 4.07143 8.06025 4.07143 9.5C4.07143 10.9397 4.64337 12.3205 5.66142 13.3386C6.67948 14.3566 8.06025 14.9286 9.5 14.9286ZM9.5 0C9.32003 0 9.14743 0.0714921 9.02018 0.198749C8.89292 0.326006 8.82143 0.498603 8.82143 0.678571V2.03571C8.82143 2.21568 8.89292 2.38828 9.02018 2.51554C9.14743 2.64279 9.32003 2.71429 9.5 2.71429C9.67997 2.71429 9.85257 2.64279 9.97982 2.51554C10.1071 2.38828 10.1786 2.21568 10.1786 2.03571V0.678571C10.1786 0.498603 10.1071 0.326006 9.97982 0.198749C9.85257 0.0714921 9.67997 0 9.5 0ZM9.5 16.2857C9.32003 16.2857 9.14743 16.3572 9.02018 16.4845C8.89292 16.6117 8.82143 16.7843 8.82143 16.9643V18.3214C8.82143 18.5014 8.89292 18.674 9.02018 18.8013C9.14743 18.9285 9.32003 19 9.5 19C9.67997 19 9.85257 18.9285 9.97982 18.8013C10.1071 18.674 10.1786 18.5014 10.1786 18.3214V16.9643C10.1786 16.7843 10.1071 16.6117 9.97982 16.4845C9.85257 16.3572 9.67997 16.2857 9.5 16.2857ZM16.2179 2.78214C16.0906 2.65493 15.918 2.58347 15.7381 2.58347C15.5582 2.58347 15.3856 2.65493 15.2584 2.78214L14.2989 3.74164C14.234 3.80424 14.1824 3.87912 14.1468 3.9619C14.1112 4.04469 14.0925 4.13373 14.0917 4.22383C14.0909 4.31394 14.1081 4.40329 14.1422 4.48668C14.1763 4.57008 14.2267 4.64584 14.2904 4.70955C14.3542 4.77327 14.4299 4.82365 14.5133 4.85777C14.5967 4.89189 14.6861 4.90906 14.7762 4.90828C14.8663 4.90749 14.9553 4.88877 15.0381 4.85321C15.1209 4.81765 15.1958 4.76595 15.2584 4.70114L16.2179 3.74164C16.3451 3.61439 16.4165 3.44183 16.4165 3.26189C16.4165 3.08196 16.3451 2.90939 16.2179 2.78214ZM4.70114 14.2989C4.57389 14.1716 4.40133 14.1002 4.22139 14.1002C4.04146 14.1002 3.86889 14.1716 3.74164 14.2989L2.78214 15.2584C2.65854 15.3863 2.59014 15.5577 2.59169 15.7357C2.59323 15.9136 2.6646 16.0838 2.79041 16.2096C2.91622 16.3354 3.08642 16.4068 3.26433 16.4083C3.44225 16.4099 3.61366 16.3415 3.74164 16.2179L4.70114 15.2584C4.82836 15.1311 4.89982 14.9585 4.89982 14.7786C4.89982 14.5987 4.82836 14.4261 4.70114 14.2989ZM19 9.5C19 9.32003 18.9285 9.14743 18.8013 9.02018C18.674 8.89292 18.5014 8.82143 18.3214 8.82143H16.9643C16.7843 8.82143 16.6117 8.89292 16.4845 9.02018C16.3572 9.14743 16.2857 9.32003 16.2857 9.5C16.2857 9.67997 16.3572 9.85257 16.4845 9.97982C16.6117 10.1071 16.7843 10.1786 16.9643 10.1786H18.3214C18.5014 10.1786 18.674 10.1071 18.8013 9.97982C18.9285 9.85257 19 9.67997 19 9.5ZM2.71429 9.5C2.71429 9.32003 2.64279 9.14743 2.51554 9.02018C2.38828 8.89292 2.21568 8.82143 2.03572 8.82143H0.678572C0.498603 8.82143 0.326006 8.89292 0.19875 9.02018C0.0714927 9.14743 0 9.32003 0 9.5C0 9.67997 0.0714927 9.85257 0.19875 9.97982C0.326006 10.1071 0.498603 10.1786 0.678572 10.1786H2.03572C2.21568 10.1786 2.38828 10.1071 2.51554 9.97982C2.64279 9.85257 2.71429 9.67997 2.71429 9.5ZM16.2179 16.2179C16.3451 16.0906 16.4165 15.918 16.4165 15.7381C16.4165 15.5582 16.3451 15.3856 16.2179 15.2584L15.2584 14.2989C15.1304 14.1752 14.959 14.1069 14.781 14.1084C14.6031 14.1099 14.4329 14.1813 14.3071 14.3071C14.1813 14.4329 14.1099 14.6031 14.1084 14.781C14.1069 14.959 14.1752 15.1304 14.2989 15.2584L15.2584 16.2179C15.3856 16.3451 15.5582 16.4165 15.7381 16.4165C15.918 16.4165 16.0906 16.3451 16.2179 16.2179ZM4.70114 4.70114C4.82836 4.57389 4.89982 4.40133 4.89982 4.22139C4.89982 4.04146 4.82836 3.86889 4.70114 3.74164L3.74164 2.78214C3.61366 2.65854 3.44225 2.59014 3.26433 2.59169C3.08642 2.59323 2.91622 2.6646 2.79041 2.79041C2.6646 2.91622 2.59323 3.08642 2.59169 3.26433C2.59014 3.44225 2.65854 3.61366 2.78214 3.74164L3.74164 4.70114C3.86889 4.82836 4.04146 4.89982 4.22139 4.89982C4.40133 4.89982 4.57389 4.82836 4.70114 4.70114Z" fill="black"/>
</svg>
