<svg width="20" height="22" viewBox="0 0 20 22" fill="none" xmlns="http://www.w3.org/2000/svg">
<path d="M19.2167 18.3596L12.5847 11.2518L19.2167 4.1439C19.9327 3.37651 19.9327 2.14107 19.2167 1.37368C18.5007 0.606295 17.348 0.606295 16.6319 1.37368L9.9999 8.48154L3.36787 1.37368C2.65186 0.606295 1.49912 0.606295 0.783106 1.37368C0.0670899 2.14107 0.0670899 3.37651 0.783106 4.1439L7.41514 11.2518L0.783106 18.3596C0.0670899 19.127 0.0670899 20.3624 0.783106 21.1298C1.49912 21.8972 2.65186 21.8972 3.36787 21.1298L9.9999 14.022L16.6319 21.1298C17.348 21.8972 18.5007 21.8972 19.2167 21.1298C19.9276 20.3624 19.9276 19.1216 19.2167 18.3596Z" fill="white"/>
</svg>
